<svg xmlns="http://www.w3.org/2000/svg" width="113" height="44" viewBox="0 0 113 44" fill="none">
  <path d="M12.7231 35.6386C9.96989 35.6386 7.64775 35.2075 5.75667 34.3454C3.86559 33.4555 2.43338 32.2596 1.46003 30.7579C0.486682 29.2284 7.62939e-06 27.4763 7.62939e-06 25.5018H6.63269C6.63269 26.2805 6.84126 27.0036 7.25841 27.671C7.70337 28.3384 8.37081 28.8807 9.26073 29.2979C10.1507 29.6872 11.3048 29.8819 12.7231 29.8819C14.0023 29.8819 15.073 29.715 15.9351 29.3813C16.7972 29.0476 17.4508 28.5887 17.8957 28.0047C18.3407 27.3929 18.5632 26.6977 18.5632 25.919C18.5632 24.9456 18.146 24.1808 17.3117 23.6246C16.4774 23.0406 15.1286 22.6652 13.2654 22.4983L10.971 22.2898C7.93976 22.0395 5.52029 21.0939 3.71264 19.4531C1.90499 17.8124 1.00117 15.6432 1.00117 12.9456C1.00117 10.9989 1.46003 9.31641 2.37776 7.8981C3.3233 6.4798 4.63037 5.39521 6.29897 4.64434C7.96757 3.86566 9.94207 3.47632 12.2225 3.47632C14.6142 3.47632 16.6582 3.89347 18.3546 4.72777C20.0788 5.53426 21.3998 6.68837 22.3175 8.19011C23.2352 9.66404 23.6941 11.4022 23.6941 13.4045H17.0197C17.0197 12.6536 16.8389 11.9723 16.4774 11.3604C16.1159 10.7208 15.5736 10.2063 14.8505 9.81699C14.1553 9.42765 13.2793 9.23298 12.2225 9.23298C11.2213 9.23298 10.3731 9.39984 9.67788 9.73356C9.01044 10.0673 8.50986 10.5261 8.17614 11.1102C7.84242 11.6664 7.67556 12.2782 7.67556 12.9456C7.67556 13.8077 7.98147 14.5586 8.59329 15.1982C9.20511 15.8379 10.2063 16.2133 11.5968 16.3245L13.9328 16.5331C16.1576 16.7278 18.1182 17.2144 19.8146 17.9931C21.511 18.744 22.832 19.7869 23.7775 21.1217C24.7509 22.4288 25.2376 24.0279 25.2376 25.919C25.2376 27.8657 24.7231 29.576 23.6941 31.0499C22.693 32.496 21.2607 33.6223 19.3975 34.4288C17.5342 35.2353 15.3094 35.6386 12.7231 35.6386Z" fill="#FBFBFB"/>
  <path d="M62.7116 35.6386C60.7093 35.6386 58.9295 35.3326 57.3721 34.7208C55.8147 34.0812 54.4938 33.2191 53.4092 32.1345C52.3524 31.0499 51.5459 29.8124 50.9897 28.4219C50.4335 27.0036 50.1554 25.5157 50.1554 23.9584V22.9989C50.1554 21.4138 50.4335 19.912 50.9897 18.4937C51.5737 17.0476 52.408 15.7822 53.4926 14.6976C54.605 13.6131 55.9399 12.7649 57.4972 12.153C59.0546 11.5134 60.7927 11.1936 62.7116 11.1936C64.6861 11.1936 66.4382 11.5134 67.9677 12.153C69.5251 12.7649 70.846 13.6131 71.9306 14.6976C73.0152 15.7822 73.8495 17.0476 74.4335 18.4937C75.0175 19.912 75.3095 21.4138 75.3095 22.9989V23.9584C75.3095 25.5157 75.0314 27.0036 74.4752 28.4219C73.919 29.8124 73.0986 31.0499 72.0141 32.1345C70.9573 33.2191 69.6502 34.0812 68.0928 34.7208C66.5355 35.3326 64.7417 35.6386 62.7116 35.6386ZM62.7116 30.007C64.0187 30.007 65.1033 29.7289 65.9654 29.1727C66.8275 28.6165 67.481 27.8379 67.926 26.8367C68.3988 25.8355 68.6351 24.7231 68.6351 23.4995C68.6351 22.1924 68.3988 21.0522 67.926 20.0789C67.4532 19.0777 66.7719 18.2851 65.882 17.7011C65.0198 17.1171 63.9631 16.8251 62.7116 16.8251C61.488 16.8251 60.4312 17.1171 59.5413 17.7011C58.6514 18.2851 57.97 19.0777 57.4972 20.0789C57.0523 21.0522 56.8298 22.1924 56.8298 23.4995C56.8298 24.7231 57.0523 25.8355 57.4972 26.8367C57.9422 27.8379 58.6096 28.6165 59.4996 29.1727C60.3895 29.7289 61.4602 30.007 62.7116 30.007Z" fill="#FBFBFB"/>
  <path d="M77.3604 43.189V11.9862H82.6582V21.8726L81.9491 21.8309C82.0603 19.5505 82.5331 17.6316 83.3674 16.0742C84.2017 14.4891 85.328 13.3071 86.7463 12.5285C88.1646 11.722 89.7637 11.3187 91.5435 11.3187C93.1287 11.3187 94.5609 11.6107 95.8401 12.1947C97.1472 12.7788 98.2596 13.5991 99.1773 14.6559C100.123 15.6849 100.832 16.9085 101.305 18.3268C101.805 19.7173 102.056 21.2469 102.056 22.9155V23.8749C102.056 25.5157 101.819 27.0592 101.347 28.5053C100.874 29.9236 100.179 31.1611 99.2608 32.2179C98.3709 33.2747 97.2724 34.109 95.9653 34.7208C94.686 35.3048 93.2121 35.5968 91.5435 35.5968C89.8193 35.5968 88.2619 35.2492 86.8714 34.554C85.5087 33.8309 84.4102 32.7463 83.5759 31.3002C82.7416 29.8263 82.2828 27.963 82.1993 25.7104L84.0348 28.2133V43.189H77.3604ZM89.6663 30.007C90.8065 30.007 91.7938 29.7289 92.6281 29.1727C93.4902 28.6165 94.1576 27.8379 94.6304 26.8367C95.1032 25.8355 95.3396 24.6814 95.3396 23.3744C95.3396 22.0673 95.1032 20.9271 94.6304 19.9537C94.1576 18.9804 93.5041 18.2295 92.6698 17.7011C91.8355 17.1449 90.8344 16.8668 89.6663 16.8668C88.6652 16.8668 87.7196 17.1032 86.8297 17.576C85.9398 18.0487 85.2167 18.7301 84.6605 19.62C84.1321 20.4821 83.868 21.5389 83.868 22.7903V24.3338C83.868 25.5296 84.146 26.5586 84.7022 27.4207C85.2863 28.255 86.0232 28.8946 86.9131 29.3396C87.8031 29.7846 88.7208 30.007 89.6663 30.007Z" fill="#FBFBFB"/>
  <path d="M104.779 34.8459V27.3789H112.121V34.8459H104.779Z" fill="#D7FC70"/>
  <path fill-rule="evenodd" clip-rule="evenodd" d="M26.5168 0V33.9282H33.1911L33.1912 20.7196C33.1962 19.3971 33.5716 18.3353 34.3174 17.5342C35.0787 16.7457 36.066 16.3427 37.2792 16.3251C38.4924 16.3427 39.4797 16.7457 40.241 17.5342C40.9869 18.3353 41.3623 19.3971 41.3672 20.7196V33.9282H48.0416L48.0417 3.47625H41.3673V10.4235C41.006 10.3806 40.6306 10.3592 40.2409 10.3592H39.9489C38.1904 10.3592 36.368 10.3592 34.6095 10.3592H34.3175C33.9279 10.3592 33.5524 10.3806 33.1911 10.4235V0H26.5168Z" fill="#FBFBFB"/>
</svg>